<!DOCTYPE svg PUBLIC "-//W3C//DTD SVG 1.1//EN" "http://www.w3.org/Graphics/SVG/1.1/DTD/svg11.dtd">
<!-- Uploaded to: SVG Repo, www.svgrepo.com, Transformed by: SVG Repo Mixer Tools -->
<svg fill="#000000" version="1.1" id="Layer_1" xmlns="http://www.w3.org/2000/svg" xmlns:xlink="http://www.w3.org/1999/xlink" viewBox="0 0 480.00 480.00" xml:space="preserve" width="145px" height="145px" transform="rotate(0)matrix(1, 0, 0, 1, 0, 0)" stroke="#000000">
<g id="SVGRepo_bgCarrier" stroke-width="0"/>
<g id="SVGRepo_tracerCarrier" stroke-linecap="round" stroke-linejoin="round" stroke="#CCCCCC" stroke-width="0.96"/>
<g id="SVGRepo_iconCarrier"> <g> <g> <path d="M352,255.999c0-17.648-14.352-32-32-32s-32,14.352-32,32v16c0,17.648,14.352,32,32,32c6.832,0,13.136-2.192,18.336-5.848 c3.84,8.152,12.072,13.848,21.664,13.848c13.232,0,24-10.768,24-24v-32c0-35.288-28.712-64-64-64c-35.288,0-64,28.712-64,64v24 c0,35.288,28.712,64,64,64h40c13.232,0,24-10.768,24-24h-16c0,4.408-3.584,8-8,8h-40c-26.472,0-48-21.528-48-48v-24 c0-26.472,21.528-48,48-48s48,21.528,48,48v32c0,4.408-3.584,8-8,8c-4.416,0-8-3.592-8-8v-16V255.999z M336,271.999 c0,8.824-7.176,16-16,16c-8.824,0-16-7.176-16-16v-16c0-8.824,7.176-16,16-16c8.824,0,16,7.176,16,16V271.999z"/> </g> </g> <g> <g> <path d="M246.552,444.287c-5.024,0.976-10.136,1.776-15.2,2.368l1.84,15.888c5.48-0.64,11-1.496,16.424-2.552L246.552,444.287z"/> </g> </g> <g> <g> <path d="M215.992,447.847c-5.112,0.192-10.304,0.2-15.384,0.016l-0.592,15.992c2.648,0.096,5.304,0.144,7.984,0.144 c2.888,0,5.768-0.056,8.632-0.168L215.992,447.847z"/> </g> </g> <g> <g> <path d="M140.464,436.279l-5.4,15.064c5.184,1.864,10.512,3.552,15.832,5l4.216-15.432 C150.2,439.567,145.272,438.007,140.464,436.279z"/> </g> </g> <g> <g> <path d="M170.096,444.407l-3.024,15.712c5.4,1.04,10.92,1.88,16.416,2.504l1.8-15.896 C180.208,446.151,175.096,445.375,170.096,444.407z"/> </g> </g> <g> <g> <path d="M112.432,423.711l-7.648,14.04c4.864,2.656,9.872,5.144,14.872,7.392l6.56-14.592 C121.584,428.471,116.952,426.167,112.432,423.711z"/> </g> </g> <g> <g> <path d="M63.752,386.455l-11.544,11.088c3.856,4.008,7.872,7.888,11.952,11.528l10.656-11.936 C71.04,393.767,67.32,390.175,63.752,386.455z"/> </g> </g> <g> <g> <path d="M86.68,406.951l-9.736,12.704c4.368,3.336,8.928,6.568,13.568,9.584l8.72-13.416 C94.936,413.031,90.72,410.047,86.68,406.951z"/> </g> </g> <g> <g> <path d="M276.176,436.063c-4.8,1.744-9.728,3.32-14.656,4.688l4.28,15.416c5.312-1.472,10.64-3.176,15.832-5.064L276.176,436.063z "/> </g> </g> <g> <g> <path d="M329.872,406.527c-4.008,3.096-8.216,6.088-12.52,8.912l8.768,13.384c4.648-3.04,9.2-6.288,13.536-9.632L329.872,406.527z "/> </g> </g> <g> <g> <path d="M352.256,386.447c-3.4,3.536-6.952,6.968-10.56,10.216l10.704,11.888c3.896-3.504,7.728-7.208,11.384-11.008 L352.256,386.447z"/> </g> </g> <g> <g> <path d="M304.16,423.359c-4.448,2.456-9.072,4.776-13.752,6.896l6.624,14.568c5.04-2.296,10.04-4.8,14.848-7.448L304.16,423.359z"/> </g> </g> <g> <g> <path d="M182.808,17.455c-5.48,0.64-11,1.496-16.424,2.552l3.064,15.704c5.024-0.976,10.136-1.776,15.2-2.368L182.808,17.455z"/> </g> </g> <g> <g> <path d="M199.368,16.167l0.64,15.984c5.104-0.2,10.296-0.208,15.384-0.016l0.592-15.992 C210.48,15.943,204.896,15.959,199.368,16.167z"/> </g> </g> <g> <g> <path d="M150.2,23.831c-5.312,1.472-10.64,3.176-15.832,5.064l5.456,15.04c4.8-1.744,9.728-3.32,14.656-4.688L150.2,23.831z"/> </g> </g> <g> <g> <path d="M118.968,35.175c-5.04,2.296-10.04,4.8-14.848,7.448l7.72,14.016c4.448-2.456,9.072-4.776,13.752-6.896L118.968,35.175z"/> </g> </g> <g> <g> <path d="M265.104,23.655l-4.224,15.424c4.912,1.344,9.84,2.904,14.648,4.632l5.408-15.056 C275.752,26.791,270.424,25.103,265.104,23.655z"/> </g> </g> <g> <g> <path d="M232.512,17.375l-1.792,15.904c5.08,0.576,10.192,1.352,15.192,2.32l3.016-15.72 C243.528,18.839,238.008,17.999,232.512,17.375z"/> </g> </g> <g> <g> <path d="M89.88,51.175c-4.648,3.04-9.2,6.288-13.536,9.632l9.784,12.664c4.008-3.096,8.216-6.088,12.52-8.912L89.88,51.175z"/> </g> </g> <g> <g> <path d="M325.488,50.759l-8.72,13.416c4.296,2.792,8.512,5.776,12.552,8.872l9.736-12.704 C334.688,57.007,330.128,53.775,325.488,50.759z"/> </g> </g> <g> <g> <path d="M351.84,70.927l-10.656,11.936c3.776,3.368,7.496,6.96,11.064,10.68l11.544-11.088 C359.936,78.447,355.92,74.567,351.84,70.927z"/> </g> </g> <g> <g> <path d="M63.6,71.439c-3.896,3.504-7.728,7.208-11.384,11.008l11.528,11.096c3.4-3.528,6.952-6.96,10.56-10.208L63.6,71.439z"/> </g> </g> <g> <g> <path d="M296.344,34.855l-6.56,14.592c4.632,2.08,9.264,4.384,13.784,6.84l7.648-14.04 C306.352,39.591,301.344,37.103,296.344,34.855z"/> </g> </g> <g> <g> <path d="M480,119.999v-16h-72h-8H8c-4.424,0-8,3.584-8,8v224c0,22.056,17.944,40,40,40h336c22.056,0,40-17.944,40-40v-152h16v-16 h-16v-16h40v-16h-40v-16H480z M375.28,119.999L208,206.983L40.72,119.999H375.28z M400,335.999c0,13.232-10.768,24-24,24H40 c-13.232,0-24-10.768-24-24V125.175l188.312,97.92c1.16,0.6,2.424,0.904,3.688,0.904c1.264,0,2.528-0.304,3.688-0.904L400,125.175 V335.999z"/> </g> </g> <g> <g> <rect x="32" y="327.999" width="16" height="16"/> </g> </g> <g> <g> <rect x="64" y="327.999" width="16" height="16"/> </g> </g> <g> <g> <rect x="96" y="327.999" width="16" height="16"/> </g> </g> </g>
</svg>